<?xml version="1.0" encoding="UTF-8" standalone="no"?>
<!DOCTYPE svg PUBLIC "-//W3C//DTD SVG 1.1//EN" "http://www.w3.org/Graphics/SVG/1.1/DTD/svg11.dtd">
<svg width="100%" height="100%" viewBox="0 0 100 100" version="1.1" xmlns="http://www.w3.org/2000/svg" xmlns:xlink="http://www.w3.org/1999/xlink" xml:space="preserve" xmlns:serif="http://www.serif.com/" style="fill-rule:evenodd;clip-rule:evenodd;stroke-linejoin:round;stroke-miterlimit:2;">
    <g transform="matrix(0.194942,0,0,0.194942,0.0341196,2.64795)">
        <path d="M387.5,76.063C255.031,131.221 259.947,129.685 165.5,145.423C137.45,150.097 108.875,154.69 102,155.63C85.353,157.906 50.213,157.925 33.5,155.667C0.508,151.21 2.93,151.375 1.394,153.476C-0.742,156.397 -0.676,281.181 1.463,283.32C2.267,284.125 6.742,285.325 11.406,285.987C27.55,288.278 42.931,295.203 55.961,306.047C59.232,308.77 70.57,321.01 81.155,333.249C103.522,359.108 113.055,368.616 125.5,377.474C137.777,386.214 146.108,390.478 169.5,399.997C192.187,409.229 196.902,411.924 204.042,419.736C210.464,426.763 212.961,431.736 217.371,446.282C219.32,452.712 221.367,458.817 221.919,459.849C224.726,465.093 236.009,465.239 246.318,460.164C253.871,456.446 259.181,450.976 262.865,443.12C265.226,438.085 265.495,436.355 265.45,426.5C265.375,410.038 260.872,397.009 250.475,383.179C244.093,374.688 235.577,368.12 216.5,356.972C203.351,349.289 199.055,346.175 192.39,339.496C180.439,327.52 173.585,312.512 172.794,296.584L172.5,290.668L189,279.284C206.59,267.147 221.734,259.062 231.5,256.593C251.689,251.488 273.028,252.95 291.498,260.703C294.799,262.089 315.457,273.592 337.403,286.266C359.35,298.939 379.6,310.185 382.403,311.256C389.132,313.826 402.232,313.293 409.291,310.161C414.969,307.642 424.189,299.228 426.418,294.531C429.721,287.572 427.684,280.07 421.359,275.896C419.786,274.858 405.804,266.716 390.287,257.801C374.77,248.886 362.172,241.495 362.292,241.375C362.411,241.256 379.157,245.664 399.504,251.171C431.496,259.83 437.582,261.19 444.5,261.232C462.472,261.34 477.213,250.898 483.107,233.886C485.132,228.041 485.256,226.798 484.175,223.189C483.502,220.943 481.643,217.797 480.044,216.197C476.886,213.04 473.609,212.016 427.629,199.828L403.758,193.5L441.629,192.957C482.455,192.372 482.603,192.353 492.525,186.538C501.017,181.561 508.942,170.243 510.755,160.5C511.165,158.3 512.619,154.239 511.991,150.886C510.899,145.064 508.942,141.793 504.616,138.562C501.934,136.559 500.403,136.486 450.742,136L399.629,135.5L425.445,122.5C447.407,111.441 452.139,108.656 457.138,103.847C470.171,91.309 473.987,71.572 466.526,55.277C464.065,49.9 461.338,47.906 456.685,48.083C455.483,48.128 424.35,60.72 387.5,76.063M0.471,218.5C0.471,253.7 0.597,267.955 0.75,250.178C0.903,232.4 0.903,203.6 0.749,186.178C0.596,168.755 0.471,183.3 0.471,218.5" style="fill:rgb(222,186,90);"/>
        <path d="M346,162.587C221.243,225.67 204.252,234.395 199.77,237.677C189.257,245.376 179.769,258.673 175.635,271.5C174.103,276.253 171.909,289.143 172.516,289.818C172.673,289.993 181.059,284.536 191.151,277.692C211.89,263.628 216.157,261.287 227.635,257.669C249.336,250.83 273.56,252.179 293.318,261.328C297.268,263.157 318.05,274.782 339.5,287.161C360.95,299.54 380.075,310.305 382,311.084C384.121,311.942 389.055,312.5 394.521,312.5C402.695,312.5 404.168,312.192 410.206,309.219C417.956,305.404 425.374,297.823 427.147,291.905C428.661,286.85 427.036,281.049 423.201,277.824C421.682,276.546 407.178,267.895 390.97,258.6C374.761,249.305 361.069,241.314 360.542,240.842C360.015,240.37 361.815,240.63 364.542,241.419C367.269,242.207 385.003,246.987 403.951,252.039C437.082,260.874 438.73,261.209 446.951,260.809C457.644,260.289 464.728,257.262 472.536,249.878C486.171,236.982 487.84,219.543 475.987,213.815C474.069,212.888 456.763,207.938 437.529,202.815L402.558,193.5L440.529,192.948C473.49,192.468 479.141,192.161 483.36,190.621C499.089,184.877 508.514,173.462 511.056,157.075C512.097,150.369 512.018,149.607 509.834,145.204C508.081,141.672 506.388,139.939 503.038,138.25C498.587,136.005 498.46,136 448.538,136.02L398.5,136.04L346,162.587M-0,269.643C-0,283.486 0.582,284.476 9.252,285.364C18.231,286.284 28.965,289.455 37.321,293.655C52.456,301.263 58.426,306.604 81.292,333C100.66,355.358 108.295,363.36 117.5,370.948C131.701,382.654 142.891,388.854 169,399.482C190.348,408.171 195.989,411.222 202.428,417.559C209.685,424.7 213.221,431.347 217.563,446C219.849,453.717 222.126,459.403 223.515,460.86C230.3,467.976 249.363,461.765 258.911,449.328C261.721,445.668 266.414,434.157 265.495,433.18C265.329,433.004 263.238,433.863 260.847,435.088C258.001,436.547 254.015,437.478 249.301,437.786C242.413,438.236 241.979,438.132 239.251,435.378C237.19,433.298 235.606,429.726 233.54,422.5C229.616,408.773 225.858,401.1 219.822,394.495C212.136,386.086 207.661,383.495 184.211,373.881C143.213,357.073 133.748,349.946 98.045,309C76.77,284.6 72.027,279.918 62.037,273.455C47.416,263.997 35.444,260.518 13.75,259.424L-0,258.73L-0,269.643" style="fill:rgb(222,186,90);"/>
        <path d="M347,162.587C223.899,224.834 205.522,234.233 201.497,237.002C191.48,243.894 181.421,256.912 177.016,268.686C174.847,274.485 172.354,287.687 173.258,288.591C173.564,288.897 181.394,283.988 190.657,277.681C214.223,261.637 222.497,257.69 239.21,254.52C255.1,251.505 274.011,253.381 289.513,259.509C293.356,261.028 304.375,266.793 314,272.32C323.625,277.847 342.653,288.783 356.284,296.621C374.65,307.182 382.537,311.177 386.739,312.05C400.608,314.929 416.144,308.918 423.873,297.684L426.912,293.268L421.125,295.605C417.943,296.891 412.884,298.231 409.883,298.584C399.417,299.814 395.129,297.917 351.732,272.857C329.702,260.136 308.755,248.403 305.182,246.783C295.784,242.522 284.985,239.973 273,239.188C262.756,238.517 262.5,238.441 262.5,236.086C262.5,234.069 264.376,232.562 273.895,226.933L285.29,220.194L289.895,221.528C292.428,222.262 309.125,226.73 327,231.458C344.875,236.185 376.6,244.626 397.5,250.216C423.325,257.123 437.787,260.512 442.638,260.793C455.47,261.537 466.745,256.687 475.531,246.643C477.989,243.833 480,241.233 480,240.865C480,240.497 477.863,240.86 475.25,241.671C466.17,244.492 460.519,243.342 389.053,224.133C351.957,214.163 321.184,205.584 320.67,205.07C318.808,203.208 321.058,200.993 328.725,197.138L336.538,193.21L481.5,191.5L487.175,188.84C493.639,185.81 500.82,179.576 505.229,173.167C507.714,169.555 507.914,168.887 506.371,169.349C498.076,171.834 492.441,172.047 442,171.782L388.5,171.5L388.185,169.286C387.905,167.314 390.691,165.659 413.685,154.139C427.883,147.026 441.525,140.04 444,138.615L448.5,136.024L424,136.032L399.5,136.039L347,162.587" style="fill:rgb(210,162,32);"/>
    </g>
    <g id="fire.svg">
    </g>
    <g transform="matrix(0.103931,-0.0557242,0.0557242,0.103931,30.4021,51.3979)">
        <path d="M363.75,44.08C362.761,44.656 362.005,46.273 362.012,47.8C362.038,53.768 374.208,70.643 381.203,74.41C385.285,76.608 388.932,76.063 391.972,72.799C394.997,69.553 394.456,65.911 389.949,59.162C385.604,52.654 379.104,47.336 372.23,44.661C367.32,42.751 366.167,42.672 363.75,44.08M250,56.609C248.625,56.864 243.225,57.77 238,58.621C232.775,59.472 223.127,61.26 216.56,62.595C196.891,66.592 183.137,67.977 157.171,68.576C111.911,69.62 100.444,74.293 77.335,101.111C68.914,110.883 62.61,115 56.067,115C48.676,115 50.734,123.607 59.126,127.788C62.374,129.407 66.593,130.319 73.546,130.905C82.563,131.666 83.573,131.965 85.77,134.519C88.912,138.172 88.173,142.379 83.063,149.918C72.691,165.219 59.197,193.155 53.564,210.986C48.186,228.01 43.998,258.686 44.005,280.994C44.011,301.559 47.996,327.068 54.159,346C59.571,362.622 62.97,364.704 72.898,357.474C79.905,352.371 88.627,355.691 97.458,366.824C104.965,376.287 107.943,383.31 110.098,396.631C115.471,429.848 116.568,433.259 124.716,442.06C128.662,446.322 132.318,449.039 137.381,451.474C151.014,458.028 181.264,464.141 200.441,464.217C220.625,464.297 230,461.209 230,454.48C230,447.828 225.473,444.899 213.685,443.922C199.679,442.762 189.292,436.725 179.575,424.098C173.193,415.803 168.942,407.533 162.05,390C158.698,381.475 151.687,365.95 146.47,355.5C134.632,331.791 133.5,327.77 133.5,309.425L133.5,295.349L137.709,286.925C141.895,278.547 149.202,268.921 150.452,270.137C150.812,270.487 150.343,274.537 149.409,279.137C147.959,286.283 147.881,288.773 148.874,296.247C150.999,312.249 160.525,333.09 166.387,334.561C170.536,335.602 173.071,334.093 175.179,329.328C176.895,325.45 177.148,322.727 177.084,308.883C177.027,296.682 177.37,292.049 178.538,289.254C179.379,287.241 185.115,280.398 191.284,274.047C199.664,265.42 203.764,260.259 207.5,253.639C219.589,232.214 225.59,225.088 235.5,220.39C240.971,217.796 250.072,217.164 254.288,219.085C257.969,220.762 260.326,225.535 259.716,230.078C259.326,232.986 257.709,235.633 253.212,240.724C235.917,260.305 226.59,283.292 225.307,309.504C224.04,335.379 231.531,353.165 250.287,368.815C264.903,381.011 273.537,385.902 290.329,391.497C307.762,397.307 319.575,399.332 336,399.327C361.306,399.319 377.428,394.375 398.571,380.141C422.734,363.872 437.346,345.835 440.171,328.788C441.134,322.977 441.06,321.74 439.618,319.54C436.768,315.191 433.465,316.136 427.088,323.126C419.424,331.529 413.631,335.761 407.258,337.613C392.445,341.92 393.611,335.526 412.228,310.368C424.024,294.427 430.169,283.226 435.473,268C444.316,242.611 447.539,220.934 446.699,192.5C445.552,153.686 436.528,128.232 417.059,108.893C408.117,100.01 403.188,97.234 398.462,98.42C394.834,99.331 394.597,102.579 397.444,112.403C402.101,128.474 400.249,139.756 392.339,143.51C387.652,145.734 382.94,144.58 377.632,139.908C371.824,134.795 367.912,128.527 361.31,113.755C354.701,98.966 349.058,90.268 341.235,82.805C329.275,71.398 314.363,63.564 295.732,58.901C289.41,57.318 283.44,56.76 270,56.492C260.375,56.3 251.375,56.353 250,56.609M156.822,141.383C146.39,145.674 139.345,152.657 127.448,170.5C119.788,181.988 111.585,198.157 108.092,208.653C105.848,215.395 103,230.398 103,235.476C103,241.813 108.781,243.737 116.538,239.981C122.352,237.167 128.622,230.681 137.081,218.73C146.613,205.262 157.496,191.67 163.588,185.626C173.74,175.552 176.397,173.966 205.637,160.53C214.46,156.476 216.674,153.902 215.038,149.601C213.637,145.915 212.277,145.501 201.5,145.482C192.743,145.467 190.403,145.063 182.67,142.232C171.776,138.244 164.994,138.021 156.822,141.383M300.228,150.23C298.979,150.832 297.681,152.423 297.344,153.764C296.397,157.537 300.463,171.09 307.165,186.5C324.025,225.268 325.839,231.217 326.701,250.543C327.695,272.842 325.623,280.04 317.384,282.912C313.705,284.194 312.973,284.148 309.416,282.412C305.034,280.272 302.972,276.808 302.415,270.644C301.82,264.066 301.154,262.274 299.105,261.738C296.014,260.929 289.831,264.337 285.16,269.424C275.179,280.293 270.911,298.483 274.438,315.122C279.532,339.153 298.465,352.911 324.947,351.825C333.759,351.464 335.159,351.108 343,347.24C358.722,339.483 366.598,331.677 374.011,316.5C379.642,304.974 382.078,294.132 382.719,277.742C383.333,262.041 382.272,254.761 377.995,245.328C373.675,235.8 370.037,231.136 353.651,214.108C337.521,197.347 330.882,188.695 317.315,166.749C309.853,154.68 305.165,148.842 303.115,149.068C302.777,149.105 301.478,149.628 300.228,150.23M351.998,165.004C348.808,170.964 360.584,190.445 372.019,198.124C377.201,201.605 379.949,201.747 382.826,198.686C385.809,195.51 385.602,193.962 381.017,185.153C376.237,175.968 369.199,167.652 363.932,164.965C358.797,162.346 353.411,162.363 351.998,165.004M452.75,279.08C448.142,281.764 446.082,294.954 449.752,298.275C457.332,305.135 467.986,300.128 467.996,289.7C468.001,285.264 465.792,280.494 463.055,279.03C460.615,277.724 455.032,277.751 452.75,279.08M90.738,283.087C87.325,285.074 84,293.453 84,300.067C84,305.708 84.272,306.472 87.4,309.6C91.219,313.419 92.741,313.691 97.54,311.414C102.12,309.241 104.118,305.785 104.736,298.972C105.773,287.537 102.923,281.972 96.061,282.03C94.103,282.047 91.707,282.522 90.738,283.087M67.367,387.918C62.788,390.71 60.998,393.825 61.015,398.973C61.033,404.673 62.615,407.824 66.912,410.72C75.254,416.341 85.993,410.027 85.993,399.5C85.993,389.278 75.667,382.857 67.367,387.918M230.658,407.981C218.521,408.471 217.707,408.635 215.826,410.963C210.335,417.755 219.937,428.532 236.938,434.66C247.382,438.424 250.777,440.882 259.496,450.995C272.236,465.772 277.223,468.061 296.696,468.067C336.513,468.08 373.974,450.234 358.655,438.55C353.062,434.284 344.78,432.107 328.098,430.514L312.5,429.025L297,421.566C271.424,409.256 259.497,406.814 230.658,407.981M396.45,426.407C392.212,428.253 388,433.547 388,437.03C388,444.524 394.002,449.489 402.996,449.432C409.613,449.391 414.344,447.123 417.04,442.701C419.493,438.679 419.515,435.356 417.114,431.42C413.607,425.669 403.676,423.259 396.45,426.407" style="fill:rgb(58,170,113);"/>
        <path d="M364.184,44.584C362.983,45.425 362.004,47.1 362.009,48.307C362.025,51.926 367.693,60.69 374.919,68.269C381.001,74.647 382.118,75.4 385.489,75.4C388.364,75.4 389.822,74.745 391.63,72.644C394.588,69.205 394.585,68.087 391.6,62.197C385.97,51.087 369.764,40.676 364.184,44.584M249.5,57.083C245.65,57.535 233.95,59.545 223.5,61.548C193.639,67.272 187.33,67.971 157,68.917C125.79,69.889 119.105,70.955 106.127,77.028C96.464,81.55 90.858,86.158 79.983,98.52C69.123,110.864 65.112,113.922 58.722,114.734C51.207,115.688 50.026,118.683 54.952,124.293C58.372,128.188 62.552,129.628 73,130.513C90.427,131.99 91.984,136.153 81.408,153C72.021,167.955 59.708,193.477 55.113,207.505C48.145,228.777 43.143,266.665 44.355,289C45.407,308.401 49.17,328.586 55.113,346.698C59.954,361.454 63.432,363.961 70.823,358.022C72.861,356.384 75.93,354.764 77.642,354.422C83.839,353.182 94.076,360.113 100.591,369.958L103.266,374L154.865,374L150.672,365.25C148.367,360.438 144.314,352.281 141.667,347.125C139.02,341.968 136.027,334.517 135.017,330.567C132.495,320.706 131.545,306.863 132.885,299.5C134.44,290.96 140.904,278.431 146.559,273L151.244,268.5L150.372,274C149.893,277.025 149.539,284.675 149.587,291C149.661,300.759 150.087,303.711 152.403,310.5C155.423,319.353 160.772,329.579 163.83,332.346C167.085,335.292 171.988,334.209 174.451,330C176.297,326.847 176.506,324.766 176.563,309C176.617,294.088 176.896,290.982 178.451,288C179.454,286.075 185.051,279.775 190.888,274C198.787,266.185 202.746,261.327 206.374,255C209.054,250.325 212.654,244.061 214.374,241.08C219.028,233.012 228.325,223.478 234.468,220.472C247.931,213.885 260,217.58 260,228.288C260,233.128 258.876,235.267 253.058,241.5C238.254,257.359 228.57,280.03 225.932,305C224.761,316.092 225.383,324.573 228.134,335C231.551,347.949 238.235,357.888 250.436,368.16L257.371,374L406.522,374L415.122,366.572C429.994,353.727 438.765,339.802 439.755,327.462C440.349,320.068 439.281,318 434.871,318C432.934,318 431.251,318.903 429.746,320.75C425.11,326.441 418.084,332.866 413.667,335.455C407.912,338.828 399.07,339.994 397.115,337.639C395.029,335.125 400.106,325.619 411.876,310C422.9,295.371 429.993,282.622 434.967,268.5C439.032,256.958 443.397,239.106 445.114,227C446.795,215.153 446.841,182.089 445.191,172C441.797,151.249 435.135,132.325 427.127,120.685C418.564,108.238 407.412,99 400.951,99C394.751,99 394.285,100.655 397.491,111.279C402.456,127.725 401.172,138.485 393.701,143.04C389.177,145.799 385.089,145.494 379.819,142.003C373.739,137.977 368.138,129.698 361.529,114.976C352.446,94.738 346.893,86.943 334.849,77.519C313.391,60.729 282.134,53.245 249.5,57.083M163.05,139.107C150.998,141.428 140.493,150.433 127.955,169.189C112.195,192.767 103,216.625 103,233.943C103,240.627 104.211,242.2 109.361,242.2C118.153,242.2 124.726,236.342 140.729,214.248C154.571,195.137 167.92,180.688 177.465,174.484C180.746,172.352 188.503,168.458 194.703,165.83C214.751,157.334 217.098,155.511 215.611,149.586C214.496,145.144 211.048,143.705 204.444,144.926C197.591,146.192 192.953,145.554 183,141.972C173.892,138.694 168.909,137.979 163.05,139.107M299.223,150.557C294.483,153.876 297.386,165.601 309.98,194C322.531,222.306 325.155,231.132 326.478,249.5C327.245,260.16 325.735,274.949 323.535,278.305C320.033,283.651 311.834,284.61 306.949,280.246C304.328,277.904 303.741,276.479 303.026,270.71C302.563,266.98 301.638,263.269 300.97,262.464C296.052,256.538 280.601,270.258 275.592,285C273.23,291.95 272.384,307.717 273.965,315.329C276.799,328.984 286.907,342.321 298.413,347.589C305.088,350.645 315.669,352.96 323.068,352.983C337.583,353.028 356.078,342.976 366.737,329.249C382.257,309.263 388.322,272.938 380.064,249.441C376.556,239.461 371.985,233.186 356.178,216.655C338.713,198.389 332.164,190 319.603,169.805C310.254,154.773 305.655,149 303.026,149C302.157,149 300.445,149.701 299.223,150.557M352.655,163.829C351.745,164.835 351,166.799 351,168.194C351,172.354 357.537,184.148 363.487,190.722C372.301,200.463 377.784,202.941 382.777,199.443C386.278,196.992 385.635,192.568 380.459,183.476C371.335,167.449 357.943,157.986 352.655,163.829M453.308,279.147C449.447,281.097 447.022,289.745 448.641,295.79C450.11,301.276 459.169,302.608 464.234,298.082C467.18,295.45 467.5,294.62 467.5,289.605C467.5,284.977 467.072,283.618 464.946,281.492C462.056,278.602 456.575,277.497 453.308,279.147M90.722,283.004C84.966,287.532 81.666,298.429 83.954,305.359C87.88,317.255 102.281,314.599 105.005,301.476C107.244,290.69 103.977,282.485 97,281.376C94.339,280.953 92.833,281.344 90.722,283.004" style="fill:rgb(58,170,113);"/>
        <path d="M363.011,45.487C362.276,46.372 362.045,48.043 362.44,49.615C364.147,56.419 377.576,72.959 382.899,74.815C386.555,76.09 391.611,73.948 393.205,70.45C394.258,68.138 394.05,67.114 391.565,62.368C385.273,50.35 367.631,39.92 363.011,45.487M250.61,57.162C246.271,57.657 234.346,59.668 224.11,61.63C193.373,67.522 188.684,68.046 158.5,68.957C134.727,69.674 128.038,70.199 121.386,71.868C105.425,75.874 93.37,83.067 83.962,94.197C70.696,109.89 66.218,113.503 57.684,115.392C51.64,116.73 50.613,118.967 54.044,123.329C57.401,127.597 61.483,129.107 72.372,130.11C84.461,131.224 87.338,132.776 87.816,138.441C88.082,141.595 86.994,144.078 80.893,154.247C67.261,176.967 56.491,200.939 51.964,218.641C49.527,228.171 46.078,250.994 45.311,262.673L44.698,272L95.79,272C128.589,272 147.102,271.644 147.497,271.005C147.835,270.458 149.052,269.507 150.202,268.892C152.061,267.897 152.231,268.008 151.74,269.887C151.19,271.988 151.307,272 172.001,272L192.815,272L197.465,266.828C200.023,263.983 203.961,258.47 206.217,254.578C219.53,231.601 224.698,225.262 234.089,220.389C238.502,218.1 240.818,217.575 246.642,217.541C254.685,217.495 257.171,218.888 259.695,224.854C261.775,229.772 260.529,233.333 254.283,240.318C247.321,248.104 242.28,255.496 237.623,264.75L233.975,272L281.651,272L284.076,269.364C293.684,258.919 303,258.282 303,268.071L303,272L326.244,272L325.751,253.75C325.191,233.028 323.72,226.411 315.357,207C302.081,176.189 299.953,170.826 298.007,163.29C295.72,154.433 296.09,152.093 300.116,149.938C305.159,147.239 307.507,149.709 321.225,172.149C330.959,188.07 337.966,196.909 354.192,213.736C369.487,229.596 372.9,233.875 377.459,242.901C381.173,250.255 382.837,256.16 383.619,264.767L384.279,272.034L408.889,271.767L433.5,271.5L436.696,261.99C444.371,239.15 448.143,208.101 446.109,184.502C443.748,157.114 437.787,136.898 427.677,122C418.535,108.528 407.458,99 400.936,99C395.076,99 394.512,101.024 397.553,111.145C402.497,127.595 401.674,136.73 394.724,142.579C392.052,144.827 390.891,145.148 386.838,144.758C377.562,143.867 371.093,136.263 361.251,114.682C353.642,97.997 349.84,92 341.736,83.896C320.691,62.851 287.103,52.997 250.61,57.162M160.929,139.312C149.337,142.577 139.731,151.204 127.844,169.023C112.833,191.525 104.2,212.95 103.258,230.037C102.746,239.34 102.813,239.755 105.086,241.347C108.124,243.475 110.51,243.405 115.732,241.035C122.218,238.091 129.169,230.92 139.062,216.967C159.297,188.426 170.636,177.37 188,169.252C193.225,166.809 200.873,163.248 204.996,161.338C209.118,159.428 213.281,157.151 214.246,156.278C216.752,154.01 216.453,149.362 213.619,146.528C211.36,144.269 210.755,144.173 201.869,144.675C193.16,145.166 191.914,144.985 184.185,142.103C174.294,138.415 167.157,137.558 160.929,139.312M352.571,163.571C350.164,165.979 350.688,171.057 354.037,177.759C357.339,184.367 368.566,197.207 373.084,199.544C378.81,202.504 383.749,200.836 385.407,195.381C386.202,192.768 380.722,182.086 374.318,173.764C367.191,164.502 356.603,159.539 352.571,163.571" style="fill:rgb(58,170,113);"/>
        <path d="M362.865,46.397C361.282,49.87 366.675,59.476 375.074,68.147C380.889,74.149 382.166,75 385.357,75C393.408,75 395.316,67.912 389.564,59.372C381.704,47.7 365.794,39.968 362.865,46.397M253.5,57.045C248.55,57.515 235.95,59.542 225.5,61.549C194.06,67.586 189.658,68.084 159.5,69.009C129.555,69.928 123.1,70.746 111.488,75.09C101.883,78.684 94.308,83.723 87.201,91.247C66.532,113.129 65.904,113.661 58.948,115.206C51.636,116.83 50.662,118.312 53.908,122.871C56.96,127.157 62.112,129.11 72.773,130.023C84.5,131.028 87.35,132.691 87.805,138.793C88.066,142.306 87.244,144.318 82.004,152.993C78.646,158.553 75.648,163.753 75.342,164.55C74.865,165.795 78.654,165.997 102.143,165.978L129.5,165.957L133.5,160.363C135.7,157.286 140.068,152.387 143.206,149.477C155.826,137.776 167.592,135.633 184.775,141.905C193.538,145.105 194.525,145.255 202.69,144.627C210.698,144.012 211.503,144.124 213.666,146.156C215.979,148.329 216.656,152.126 215.342,155.552C214.979,156.496 210.592,159.224 205.592,161.614L196.5,165.959L247.358,165.98L298.217,166L297.656,163.75C295.724,155.994 295.775,153.225 297.89,151.11C300.667,148.333 305.107,148.397 307.683,151.25C308.8,152.488 311.595,156.313 313.894,159.75L318.075,166L334.297,166C349.436,166 350.602,165.866 351.768,164C353.416,161.36 358.826,161.36 364,164C367.716,165.896 369.894,166 405.838,166L443.756,166L442.358,159.25C438.071,138.546 428.829,120.811 415.863,108.403C408.993,101.828 404.44,98.991 400.8,99.015C395.191,99.053 394.971,100.922 398.871,115.41C401.594,125.526 401.602,132.126 398.898,137.712C396.519,142.624 392.804,145 387.5,145C382.601,145 379.063,142.977 373.879,137.21C369.385,132.212 368.779,131.117 357.713,108C352.417,96.937 350.03,93.183 344.487,87.202C333.341,75.174 319.982,66.864 303.5,61.706C289.632,57.365 269.689,55.506 253.5,57.045" style="fill:rgb(58,170,113);"/>
    </g>
</svg>
